<svg width="24" height="24" viewBox="0 0 24 24" fill="none" xmlns="http://www.w3.org/2000/svg">
<circle cx="17.5" cy="6.5" r="6.5" fill="#FCE6EA"/>
<path d="M6.42795 5.14624C7.91827 3.68573 9.92475 2.87237 12.0114 2.88291C14.098 2.89345 16.0962 3.72704 17.5717 5.20253C19.0472 6.67802 19.8807 8.67618 19.8913 10.7628C19.9018 12.8494 19.0885 14.8559 17.6279 16.3462L13.4419 20.5322C13.0669 20.9072 12.5583 21.1178 12.0279 21.1178C11.4976 21.1178 10.989 20.9072 10.6139 20.5322L6.42795 16.3462C4.94284 14.861 4.10852 12.8466 4.10852 10.7462C4.10852 8.64587 4.94284 6.63151 6.42795 5.14624Z" stroke="#E4012B" stroke-width="1.25" stroke-linejoin="round"/>
<path d="M12.028 13.7461C13.6848 13.7461 15.028 12.4029 15.028 10.7461C15.028 9.08924 13.6848 7.74609 12.028 7.74609C10.3711 7.74609 9.02795 9.08924 9.02795 10.7461C9.02795 12.4029 10.3711 13.7461 12.028 13.7461Z" stroke="#E4012B" stroke-width="1.25" stroke-linecap="round" stroke-linejoin="round"/>
</svg>
