<svg width="24" height="24" viewBox="0 0 24 24" fill="none" xmlns="http://www.w3.org/2000/svg">
<circle cx="17.5" cy="6.5" r="6.5" fill="#FCE6EA"/>
<path fill-rule="evenodd" clip-rule="evenodd" d="M10.7711 3.5H12.4159C13.8474 3.5 14.9814 3.5 15.8684 3.62098C16.7812 3.74591 17.5203 4.00842 18.1036 4.59986C18.2068 4.71228 18.263 4.86097 18.2603 5.0146C18.2577 5.16823 18.1964 5.31482 18.0893 5.42347C17.9823 5.53212 17.8379 5.59436 17.6866 5.59707C17.5353 5.59978 17.3888 5.54275 17.2781 5.438C16.9479 5.10433 16.4962 4.90349 15.7127 4.79674C14.9128 4.68763 13.8575 4.68605 12.3723 4.68605H10.8147C9.32946 4.68605 8.27494 4.68763 7.47354 4.79674C6.69082 4.90349 6.23911 5.10433 5.90967 5.43879C5.58023 5.77326 5.3824 6.23186 5.27726 7.02651C5.16979 7.84014 5.16823 8.91074 5.16823 10.4186V13.5814C5.16823 15.0893 5.16979 16.1607 5.27726 16.9735C5.3824 17.7681 5.58023 18.2267 5.90967 18.5612C6.23911 18.8957 6.69082 19.0965 7.47431 19.2033C8.27494 19.3124 9.32946 19.314 10.8147 19.314H12.3723C13.8575 19.314 14.9128 19.3124 15.7134 19.2033C16.4962 19.0965 16.9479 18.8957 17.2773 18.5612C17.8194 18.0109 17.9837 17.1561 18.0117 15.1541C18.014 14.9968 18.0777 14.8469 18.1889 14.7373C18.2439 14.6831 18.3089 14.6403 18.3802 14.6116C18.4515 14.5828 18.5277 14.5686 18.6044 14.5698C18.6811 14.5709 18.7569 14.5874 18.8273 14.6182C18.8977 14.6491 18.9615 14.6937 19.0149 14.7496C19.0684 14.8055 19.1105 14.8715 19.1388 14.9439C19.1671 15.0163 19.1811 15.0936 19.18 15.1715C19.1527 17.0905 19.0304 18.4592 18.1036 19.4001C17.5203 19.9916 16.7812 20.2541 15.8684 20.379C14.9806 20.5 13.8474 20.5 12.4159 20.5H10.7711C9.33959 20.5 8.20563 20.5 7.31855 20.379C6.40577 20.2541 5.66667 19.9916 5.08334 19.4001C4.50078 18.8079 4.24221 18.0575 4.11916 17.1308C4 16.2294 4 15.079 4 13.6257V10.3743C4 8.92102 4 7.76977 4.11916 6.86916C4.24221 5.94247 4.50078 5.19209 5.08334 4.59986C5.66667 4.00842 6.40577 3.74591 7.31855 3.62098C8.2064 3.5 9.33959 3.5 10.7711 3.5ZM16.3552 8.08288C16.5499 7.87597 16.7833 7.71065 17.0419 7.59663C17.3004 7.4826 17.5787 7.42218 17.8605 7.41891C18.1424 7.41564 18.422 7.46958 18.683 7.57758C18.944 7.68557 19.1812 7.84543 19.3805 8.04777C19.5797 8.25011 19.7372 8.49084 19.8436 8.75583C19.9499 9.02082 20.0031 9.30472 19.9999 9.59086C19.9966 9.87699 19.9371 10.1596 19.8248 10.422C19.7125 10.6845 19.5497 10.9215 19.3459 11.1192L15.6434 14.8805C15.4893 15.0453 15.3255 15.2003 15.1527 15.3447C14.973 15.487 14.7799 15.6082 14.5733 15.7084C14.3988 15.793 14.215 15.8547 13.9455 15.9456L12.3225 16.4951C12.1467 16.5548 11.9581 16.5636 11.7777 16.5205C11.5973 16.4773 11.4323 16.384 11.3012 16.251C11.1702 16.1179 11.0783 15.9504 11.0358 15.7673C10.9933 15.5842 11.002 15.3926 11.0608 15.2142L11.5912 13.6012L11.6021 13.5672C11.6924 13.2928 11.7531 13.107 11.8365 12.9299C11.9344 12.7211 12.0545 12.5238 12.1947 12.3416C12.3139 12.1866 12.4502 12.0482 12.6519 11.8434L12.6761 11.8189L16.3552 8.08288ZM18.5203 8.92102C18.4324 8.8317 18.328 8.76085 18.213 8.71251C18.0981 8.66417 17.9749 8.63929 17.8505 8.63929C17.7261 8.63929 17.603 8.66417 17.488 8.71251C17.3731 8.76085 17.2687 8.8317 17.1807 8.92102L17.039 9.06493L17.0655 9.14954C17.1387 9.36302 17.2781 9.64767 17.5413 9.91493C17.7743 10.153 18.062 10.3283 18.3786 10.4249L18.5203 10.281C18.6083 10.1917 18.6781 10.0857 18.7257 9.96905C18.7733 9.85237 18.7978 9.72732 18.7978 9.60102C18.7978 9.47473 18.7733 9.34967 18.7257 9.233C18.6781 9.11632 18.6083 9.01031 18.5203 8.92102ZM17.486 11.3311C17.2013 11.1802 16.9412 10.9855 16.715 10.7539C16.4869 10.5243 16.2951 10.2602 16.1465 9.97107L13.5016 12.6563C13.2672 12.8943 13.1846 12.9797 13.1153 13.0698C13.027 13.1847 12.952 13.3078 12.8902 13.4391C12.8419 13.5427 12.8038 13.6557 12.6986 13.9752L12.3871 14.924L12.6075 15.1478L13.5421 14.8315C13.8567 14.7247 13.9681 14.686 14.0701 14.637C14.1989 14.5737 14.3201 14.4976 14.4338 14.4085C14.5226 14.3381 14.6067 14.2543 14.8412 14.0163L17.486 11.3311ZM7.8941 9.62791C7.8941 9.47063 7.95564 9.31979 8.06518 9.20858C8.17472 9.09736 8.3233 9.03488 8.47821 9.03488H13.5405C13.6955 9.03488 13.844 9.09736 13.9536 9.20858C14.0631 9.31979 14.1247 9.47063 14.1247 9.62791C14.1247 9.78519 14.0631 9.93602 13.9536 10.0472C13.844 10.1585 13.6955 10.2209 13.5405 10.2209H8.47821C8.3233 10.2209 8.17472 10.1585 8.06518 10.0472C7.95564 9.93602 7.8941 9.78519 7.8941 9.62791ZM7.8941 12.7907C7.8941 12.6334 7.95564 12.4826 8.06518 12.3714C8.17472 12.2602 8.3233 12.1977 8.47821 12.1977H10.4253C10.5802 12.1977 10.7288 12.2602 10.8383 12.3714C10.9478 12.4826 11.0094 12.6334 11.0094 12.7907C11.0094 12.948 10.9478 13.0988 10.8383 13.21C10.7288 13.3212 10.5802 13.3837 10.4253 13.3837H8.47821C8.3233 13.3837 8.17472 13.3212 8.06518 13.21C7.95564 13.0988 7.8941 12.948 7.8941 12.7907ZM7.8941 15.9535C7.8941 15.7962 7.95564 15.6454 8.06518 15.5342C8.17472 15.4229 8.3233 15.3605 8.47821 15.3605H9.64644C9.80136 15.3605 9.94993 15.4229 10.0595 15.5342C10.169 15.6454 10.2306 15.7962 10.2306 15.9535C10.2306 16.1108 10.169 16.2616 10.0595 16.3728C9.94993 16.484 9.80136 16.5465 9.64644 16.5465H8.47821C8.3233 16.5465 8.17472 16.484 8.06518 16.3728C7.95564 16.2616 7.8941 16.1108 7.8941 15.9535Z" fill="#E4012B"/>
</svg>
