<svg width="24" height="24" viewBox="0 0 24 24" fill="none" xmlns="http://www.w3.org/2000/svg">
<path d="M12.052 10.5951V17.3191M10.884 17.6081L6.28003 20.8101C5.88191 21.0328 5.42364 21.1241 4.97056 21.071C4.51748 21.0179 4.09274 20.8231 3.75688 20.5144C3.42102 20.2057 3.1912 19.7988 3.10019 19.3518C3.00918 18.9048 3.06162 18.4405 3.25003 18.0251L9.94603 4.00106C10.1199 3.62731 10.397 3.31101 10.7446 3.08938C11.0921 2.86774 11.4958 2.75 11.908 2.75C12.3203 2.75 12.7239 2.86774 13.0715 3.08938C13.4191 3.31101 13.6961 3.62731 13.87 4.00106L20.767 18.2281C20.9428 18.6346 20.9897 19.0852 20.9012 19.5192C20.8128 19.9532 20.5933 20.3496 20.2724 20.6549C19.9516 20.9602 19.5448 21.1596 19.1069 21.2264C18.6691 21.2931 18.2213 21.2239 17.824 21.0281L13.062 17.6081C12.7341 17.4079 12.3573 17.3019 11.973 17.3019C11.5888 17.3019 11.212 17.4079 10.884 17.6081Z" stroke="black" stroke-width="1.25" stroke-linecap="round" stroke-linejoin="round"/>
</svg>
