<svg width="24" height="24" viewBox="0 0 24 24" fill="none" xmlns="http://www.w3.org/2000/svg">
<circle cx="17.5" cy="6.5" r="6.5" fill="#FCE6EA"/>
<path d="M4 10.2224C4 6.87044 4 5.19399 5.04178 4.15311C6.08356 3.11222 7.75911 3.11133 11.1111 3.11133H12.8889C16.2409 3.11133 17.9173 3.11133 18.9582 4.15311C19.9991 5.19488 20 6.87044 20 10.2224V13.778C20 17.13 20 18.8064 18.9582 19.8473C17.9164 20.8882 16.2409 20.8891 12.8889 20.8891H11.1111C7.75911 20.8891 6.08267 20.8891 5.04178 19.8473C4.00089 18.8055 4 17.13 4 13.778V10.2224Z" stroke="#E4012B" stroke-width="1.25"/>
<path d="M8.44446 10.2227H15.5556M8.44446 13.7782H12.8889" stroke="#E4012B" stroke-width="1.25" stroke-linecap="round"/>
</svg>
