<svg width="24" height="24" viewBox="0 0 24 24" fill="none" xmlns="http://www.w3.org/2000/svg">
<circle cx="17.5" cy="6.5" r="6.5" fill="#FCE6EA"/>
<path d="M19.9351 10.2137C14.0595 9.40655 8.99286 13.7692 9.33331 19.5559M7.11108 8.44477C7.11108 8.91627 7.29838 9.36845 7.63178 9.70185C7.96518 10.0352 8.41737 10.2225 8.88886 10.2225C9.36036 10.2225 9.81254 10.0352 10.1459 9.70185C10.4793 9.36845 10.6666 8.91627 10.6666 8.44477C10.6666 7.97327 10.4793 7.52109 10.1459 7.18769C9.81254 6.85429 9.36036 6.66699 8.88886 6.66699C8.41737 6.66699 7.96518 6.85429 7.63178 7.18769C7.29838 7.52109 7.11108 7.97327 7.11108 8.44477Z" stroke="#E4012B" stroke-width="1.25" stroke-linecap="round" stroke-linejoin="round"/>
<path d="M4 12.948C6.47111 12.6058 8.68889 13.7996 9.888 15.7036" stroke="#E4012B" stroke-width="1.25" stroke-linecap="round" stroke-linejoin="round"/>
<path d="M4 9.68889C4 7.69778 4 6.70222 4.38756 5.94133C4.72843 5.27234 5.27234 4.72843 5.94133 4.38756C6.70222 4 7.69778 4 9.68889 4H14.3111C16.3022 4 17.2978 4 18.0587 4.38756C18.7277 4.72843 19.2716 5.27234 19.6124 5.94133C20 6.70222 20 7.69778 20 9.68889V14.3111C20 16.3022 20 17.2978 19.6124 18.0587C19.2716 18.7277 18.7277 19.2716 18.0587 19.6124C17.2978 20 16.3022 20 14.3111 20H9.68889C7.69778 20 6.70222 20 5.94133 19.6124C5.27234 19.2716 4.72843 18.7277 4.38756 18.0587C4 17.2978 4 16.3022 4 14.3111V9.68889Z" stroke="#E4012B" stroke-width="1.25" stroke-linecap="round" stroke-linejoin="round"/>
</svg>
