<svg width="3" height="38" viewBox="0 0 3 38" fill="none" xmlns="http://www.w3.org/2000/svg">
<path d="M1.5 0.666667C0.76362 0.666667 0.166667 1.26362 0.166667 2C0.166667 2.73638 0.76362 3.33333 1.5 3.33333C2.23638 3.33333 2.83333 2.73638 2.83333 2C2.83333 1.26362 2.23638 0.666667 1.5 0.666667ZM1.5 34.6667C0.763619 34.6667 0.166665 35.2636 0.166665 36C0.166665 36.7364 0.763619 37.3333 1.5 37.3333C2.23638 37.3333 2.83333 36.7364 2.83333 36C2.83333 35.2636 2.23638 34.6667 1.5 34.6667ZM1.25 2L1.25 36L1.75 36L1.75 2L1.25 2Z" fill="#E4012B"/>
</svg>
