<svg width="55" height="55" viewBox="0 0 55 55" fill="none" xmlns="http://www.w3.org/2000/svg">
<rect x="0.500244" y="0.777344" width="54" height="54" rx="27" fill="white"/>
<path d="M19.8088 40.7773C19.1688 40.7773 18.6241 40.5501 18.1745 40.0956C17.725 39.641 17.5002 39.0907 17.5002 38.4446V25.7768C17.5002 25.1316 17.725 24.5813 18.1745 24.1258C18.6241 23.6713 19.1688 23.444 19.8088 23.444H21.786V20.5551C21.786 18.946 22.3407 17.581 23.4502 16.4601C24.5588 15.3383 25.9088 14.7773 27.5002 14.7773C29.0917 14.7773 30.4421 15.3383 31.5517 16.4601C32.6612 17.582 33.2155 18.947 33.2145 20.5551V23.444H35.1931C35.8312 23.444 36.3755 23.6713 36.826 24.1258C37.2755 24.5803 37.5002 25.1311 37.5002 25.7782V38.4446C37.5002 39.0898 37.2755 39.6401 36.826 40.0956C36.3764 40.5501 35.8321 40.7773 35.1931 40.7773H19.8088ZM19.8088 39.3329H35.1931C35.4493 39.3329 35.6598 39.2496 35.8245 39.083C35.9893 38.9164 36.0717 38.7036 36.0717 38.4446V25.7768C36.0717 25.5178 35.9893 25.3049 35.8245 25.1383C35.6598 24.9718 35.4493 24.8885 35.1931 24.8885H19.8074C19.5512 24.8885 19.3407 24.9718 19.176 25.1383C19.0112 25.3049 18.9288 25.5182 18.9288 25.7782V38.4446C18.9288 38.7036 19.0112 38.9164 19.176 39.083C19.3407 39.2496 19.5517 39.3329 19.8088 39.3329ZM27.5002 34.2773C28.1031 34.2773 28.6107 34.0684 29.0231 33.6505C29.4364 33.2335 29.6431 32.7202 29.6431 32.1107C29.6431 31.5011 29.4364 30.9879 29.0231 30.5709C28.6098 30.1539 28.1021 29.945 27.5002 29.944C26.8983 29.943 26.3907 30.152 25.9774 30.5709C25.5641 30.9879 25.3574 31.5011 25.3574 32.1107C25.3574 32.7202 25.5641 33.2335 25.9774 33.6505C26.3898 34.0684 26.8974 34.2773 27.5002 34.2773ZM23.2145 23.444H31.786V20.5551C31.786 19.3514 31.3693 18.3283 30.536 17.4857C29.7026 16.6431 28.6907 16.2218 27.5002 16.2218C26.3098 16.2218 25.2979 16.6431 24.4645 17.4857C23.6312 18.3283 23.2145 19.3514 23.2145 20.5551V23.444Z" fill="#E4012B"/>
</svg>
