<svg width="238" height="160" viewBox="0 0 238 160" fill="none" xmlns="http://www.w3.org/2000/svg">
<path d="M69.7762 39.124L34.1699 63.1416L69.2402 116.011L104.846 91.9934L69.7762 39.124Z" fill="#F5F5F5"/>
<path d="M86.448 89.4901L86.0437 92.0121L68.3435 89.4409L68.7475 86.9189L86.448 89.4901Z" fill="#E0E0E0"/>
<path d="M77.5339 80.4941L80.0738 80.8634L77.2578 98.4369L74.7175 98.0682L77.5339 80.4941Z" fill="#E0E0E0"/>
<path d="M61.2302 58.1587C61.2556 58.1971 57.6872 60.6486 53.2614 63.6339C48.8339 66.6201 45.2252 69.0092 45.1998 68.9708C45.1745 68.9327 48.7419 66.4815 53.1697 63.4953C57.5955 60.51 61.2049 58.1206 61.2302 58.1587Z" fill="#E0E0E0"/>
<path d="M74.3247 54.844C74.3501 54.8824 68.4163 58.9295 61.0732 63.8821C53.7272 68.8367 47.7537 72.821 47.7284 72.7826C47.703 72.7445 53.6355 68.6981 60.9811 63.7435C68.3242 58.7909 74.2993 54.8059 74.3247 54.844Z" fill="#E0E0E0"/>
<path d="M76.9492 58.8011C76.9746 58.8395 71.0408 62.8865 63.6977 67.8391C56.3517 72.7937 50.3783 76.778 50.3529 76.7396C50.3275 76.7012 56.26 72.6551 63.6057 67.7006C70.9491 62.7479 76.9238 58.763 76.9492 58.8011Z" fill="#E0E0E0"/>
<path d="M79.574 62.7581C79.5993 62.7965 73.6655 66.8435 66.3224 71.7962C58.9765 76.7507 53.003 80.735 52.9776 80.6966C52.9522 80.6586 58.8848 76.6122 66.2304 71.6576C73.5738 66.7046 79.5486 62.7197 79.574 62.7581Z" fill="#E0E0E0"/>
<path d="M82.199 66.7151C82.2243 66.7535 76.2905 70.8002 68.9474 75.7532C61.6015 80.7078 55.628 84.6921 55.6026 84.6537C55.5772 84.6153 61.5098 80.5692 68.8554 75.6146C76.1985 70.662 82.1736 66.677 82.199 66.7151Z" fill="#E0E0E0"/>
<path d="M188.838 74.553L158.935 94.7236L188.388 139.125L218.291 118.954L188.838 74.553Z" fill="#F5F5F5"/>
<path d="M202.839 116.858L202.5 118.976L187.635 116.816L187.974 114.698L202.839 116.858Z" fill="#E0E0E0"/>
<path d="M195.353 109.303L197.486 109.613L195.121 124.372L192.988 124.062L195.353 109.303Z" fill="#E0E0E0"/>
<path d="M181.661 90.5435C181.686 90.5819 178.693 92.6456 174.976 95.1528C171.257 97.6606 168.223 99.6622 168.198 99.6238C168.173 99.5854 171.165 97.5221 174.884 95.0142C178.601 92.5073 181.635 90.5054 181.661 90.5435Z" fill="#E0E0E0"/>
<path d="M192.658 87.7601C192.683 87.7985 187.703 91.202 181.536 95.3617C175.367 99.5226 170.347 102.864 170.321 102.825C170.296 102.787 175.275 99.3841 181.444 95.2231C187.611 91.0638 192.632 87.722 192.658 87.7601Z" fill="#E0E0E0"/>
<path d="M194.862 91.0833C194.887 91.1217 189.908 94.5256 183.741 98.6849C177.571 102.846 172.551 106.187 172.526 106.149C172.501 106.11 177.48 102.707 183.649 98.5464C189.816 94.3867 194.837 91.0449 194.862 91.0833Z" fill="#E0E0E0"/>
<path d="M197.066 94.4066C197.092 94.445 192.112 97.8485 185.945 102.008C179.775 106.169 174.755 109.51 174.73 109.472C174.705 109.434 179.684 106.031 185.853 101.87C192.02 97.7103 197.041 94.3685 197.066 94.4066Z" fill="#E0E0E0"/>
<path d="M199.271 97.7308C199.296 97.7692 194.316 101.173 188.149 105.332C181.98 109.493 176.96 112.834 176.935 112.796C176.909 112.758 181.888 109.355 188.058 105.194C194.224 101.034 199.245 97.6924 199.271 97.7308Z" fill="#E0E0E0"/>
<path d="M141.528 41.0651L108.9 23.4688L83.2061 71.9153L115.834 89.5116L141.528 41.0651Z" fill="#F5F5F5"/>
<path d="M110.249 74.3576L108.179 75.0725L102.925 60.4248L104.995 59.71L110.249 74.3576Z" fill="#E0E0E0"/>
<path d="M113.422 63.8496L114.177 65.9517L99.7508 70.9338L98.9968 68.8317L113.422 63.8496Z" fill="#E0E0E0"/>
<path d="M123.673 42.2377C123.647 42.286 120.338 40.5513 116.282 38.3641C112.225 36.1759 108.958 34.3637 108.983 34.3154C109.009 34.2674 112.318 36.0015 116.375 38.1893C120.43 40.3769 123.698 42.1897 123.673 42.2377Z" fill="#E0E0E0"/>
<path d="M131.502 50.9529C131.476 51.0012 126 48.0975 119.271 44.4687C112.54 40.8383 107.105 37.8575 107.131 37.8092C107.157 37.7612 112.632 40.6639 119.364 44.2943C126.092 47.9231 131.528 50.9045 131.502 50.9529Z" fill="#E0E0E0"/>
<path d="M129.579 54.5792C129.553 54.6275 124.076 51.7238 117.348 48.0947C110.616 44.4643 105.182 41.4835 105.208 41.4352C105.234 41.3872 110.709 44.2899 117.44 47.9203C124.169 51.5491 129.604 54.5308 129.579 54.5792Z" fill="#E0E0E0"/>
<path d="M127.656 58.2051C127.63 58.2535 122.153 55.3498 115.424 51.7207C108.693 48.0906 103.259 45.1095 103.285 45.0611C103.31 45.0128 108.786 47.9159 115.517 51.5463C122.246 55.1754 127.681 58.1571 127.656 58.2051Z" fill="#E0E0E0"/>
<path d="M125.733 61.8311C125.707 61.8794 120.23 58.9757 113.501 55.3466C106.77 51.7165 101.336 48.7354 101.361 48.6871C101.387 48.6391 106.863 51.5418 113.594 55.1722C120.323 58.8013 125.758 61.7831 125.733 61.8311Z" fill="#E0E0E0"/>
<path opacity="0.2" d="M125.904 0H125.084V14.0746H125.904V0Z" fill="black"/>
<path d="M106.381 31.101H144.607C144.607 31.101 141.078 14.0664 125.204 14.0664C111.085 14.0661 106.381 31.101 106.381 31.101Z" fill="#E4012B"/>
<path d="M125.904 0H125.084V14.0746H125.904V0Z" fill="#E4012B"/>
<path d="M210.604 140.745C210.604 140.791 169.588 140.829 119.005 140.829C68.4035 140.829 27.3967 140.791 27.3967 140.745C27.3967 140.699 68.4035 140.662 119.005 140.662C169.588 140.662 210.604 140.7 210.604 140.745Z" fill="#263238"/>
<path d="M37.5361 120.704C38.609 120.742 39.6163 121.329 40.3239 122.144C41.0316 122.958 41.4654 123.982 41.743 125.028C42.28 127.051 41.9499 129.439 41.3778 131.453C39.2053 130.67 37.8658 128.334 37.2601 127.105C36.3023 125.164 35.741 121.069 37.5361 120.704Z" fill="#E4012B"/>
<path d="M44.5034 133.905C43.818 132.912 43.8018 131.532 44.3438 130.453C44.8855 129.374 45.9266 128.596 47.0732 128.241C47.6034 128.077 48.2184 128.008 48.6795 128.318C49.1108 128.609 49.297 129.179 49.2412 129.698C49.1857 130.218 48.9245 130.694 48.6164 131.114C47.56 132.556 46.2751 133.756 44.5034 133.905Z" fill="#E4012B"/>
<path d="M44.7425 140.667C44.732 140.669 44.699 140.519 44.6454 140.247C44.5873 139.946 44.5121 139.559 44.422 139.093C44.2507 138.124 43.9787 136.745 44.1843 135.22C44.382 133.703 44.9812 132.405 45.6092 131.631C45.9182 131.239 46.2143 130.961 46.4333 130.791C46.5393 130.701 46.6326 130.646 46.6919 130.603C46.7525 130.563 46.7858 130.544 46.789 130.548C46.8128 130.576 46.2813 130.906 45.6939 131.696C45.0989 132.473 44.5286 133.748 44.3338 135.241C44.1313 136.734 44.382 138.1 44.527 139.075C44.6048 139.565 44.6673 139.962 44.7035 140.237C44.7393 140.513 44.7527 140.666 44.7425 140.667Z" fill="#263238"/>
<path d="M38.2368 123.784C38.2415 123.782 38.2717 123.839 38.3243 123.95C38.3821 124.076 38.4563 124.238 38.5481 124.438C38.74 124.862 39.0098 125.48 39.3369 126.247C39.9916 127.779 40.8662 129.909 41.7795 132.283C42.6924 134.658 43.4705 136.826 44.0116 138.403C44.2826 139.191 44.4962 139.831 44.6383 140.275C44.7043 140.485 44.7576 140.655 44.7989 140.787C44.8341 140.905 44.85 140.968 44.8452 140.97C44.8401 140.971 44.8148 140.912 44.7703 140.797C44.7221 140.667 44.6599 140.501 44.5831 140.294C44.4181 139.838 44.1902 139.209 43.9113 138.439C43.3446 136.872 42.5512 134.711 41.6389 132.338C40.7262 129.966 39.8675 127.831 39.2386 126.288C38.9295 125.53 38.6769 124.91 38.4938 124.461C38.4126 124.257 38.3469 124.091 38.2958 123.962C38.2526 123.848 38.232 123.786 38.2368 123.784Z" fill="#263238"/>
<path d="M42.1638 136.193C40.8827 133.995 38.4907 132.496 35.9688 132.311C35.3265 132.264 34.5541 132.374 34.2679 132.955C33.981 133.537 34.3647 134.227 34.8023 134.705C36.6225 136.693 39.7019 137.386 42.1879 136.367" fill="#E4012B"/>
<path d="M36.9468 134.045C36.9474 134.035 37.0902 134.041 37.3489 134.06C37.4783 134.069 37.6367 134.081 37.8179 134.115C37.9988 134.149 38.2091 134.169 38.4332 134.232C38.6588 134.287 38.9076 134.343 39.1653 134.437C39.428 134.515 39.6978 134.629 39.9811 134.749C40.5409 135.006 41.1346 135.341 41.7001 135.777C42.2615 136.219 42.7356 136.712 43.1211 137.195C43.3065 137.443 43.4835 137.678 43.6216 137.917C43.7742 138.146 43.8875 138.377 43.9938 138.585C44.1077 138.789 44.175 138.992 44.2496 139.162C44.3248 139.332 44.3718 139.485 44.4092 139.61C44.4863 139.86 44.5238 139.999 44.5139 140.002C44.4819 140.013 44.3273 139.453 43.8996 138.634C43.7885 138.432 43.6714 138.208 43.5165 137.985C43.3763 137.752 43.1979 137.524 43.0129 137.283C42.6277 136.812 42.1596 136.331 41.6084 135.898C41.0531 135.469 40.472 135.136 39.924 134.877C39.6467 134.755 39.3826 134.638 39.1253 134.556C38.8733 134.459 38.629 134.398 38.4078 134.336C37.5177 134.109 36.9433 134.078 36.9468 134.045Z" fill="#263238"/>
<path d="M94.8694 75.054L83.6481 133.23L82.1792 140.845L157.09 140.473C160.452 140.456 163.431 137.446 164.513 132.973L177.796 78.0495C178.617 74.6543 176.816 71.1231 174.263 71.126L98.4451 71.2063C96.7711 71.2085 95.3076 72.7836 94.8694 75.054Z" fill="#E4012B"/>
<g opacity="0.5">
<path d="M94.8694 75.054L83.6481 133.23L82.1792 140.845L157.09 140.473C160.452 140.456 163.431 137.446 164.513 132.973L177.796 78.0495C178.617 74.6543 176.816 71.1231 174.263 71.126L98.4451 71.2063C96.7711 71.2085 95.3076 72.7836 94.8694 75.054Z" fill="black"/>
</g>
<path d="M149.904 129.288L141.973 64.8379C141.648 62.197 139.562 60.2271 137.098 60.2354L119.707 60.2927C118.42 60.2968 117.185 60.8488 116.271 61.829L108.012 70.6818L59.6424 70.9362C56.6864 70.9519 54.4156 73.772 54.8075 76.941L62.1716 136.51C62.4975 139.147 64.5798 141.114 67.0394 141.109L151.338 140.941C160.727 141.137 161.623 138.341 161.623 138.341C150.863 140.746 149.905 129.296 149.904 129.288Z" fill="#E4012B"/>
<g opacity="0.5">
<path d="M113.555 116.389L110.712 119.468L88.8152 99.6044L91.6585 96.5254L113.555 116.389Z" fill="white"/>
<path d="M109.52 95.8428L112.663 98.693L92.85 120.151L89.7078 117.301L109.52 95.8428Z" fill="white"/>
</g>
<path d="M161.942 33.2104C161.739 33.1227 161.593 32.924 161.583 32.6869L161.456 29.716C161.448 29.5291 161.527 29.3493 161.67 29.2303C161.813 29.1109 162.003 29.0664 162.183 29.1093C162.657 29.2219 163.179 29.1179 163.616 28.8239C164.019 28.5531 164.289 28.1544 164.357 27.7298C164.425 27.3067 164.296 26.8386 164.001 26.445C163.685 26.0235 163.219 25.7397 162.75 25.6856C161.795 25.5746 160.763 26.3128 160.497 27.2978C160.412 27.6159 160.086 27.804 159.771 27.7173C159.45 27.6283 159.269 27.3026 159.355 26.9845C159.772 25.4363 161.356 24.3215 162.886 24.4991C163.679 24.5912 164.431 25.0379 164.945 25.7247C165.434 26.3775 165.646 27.1781 165.526 27.9218C165.404 28.6722 164.948 29.3627 164.273 29.8168C163.786 30.1448 163.227 30.3259 162.668 30.3455L162.766 32.6354C162.78 32.965 162.526 33.2434 162.2 33.2575C162.108 33.2616 162.021 33.2443 161.942 33.2104Z" fill="#E4012B"/>
<path d="M162.81 34.424C162.828 34.6931 162.626 34.9264 162.36 34.9446C162.093 34.9632 161.861 34.76 161.843 34.4909C161.825 34.2218 162.026 33.9885 162.293 33.9699C162.56 33.9514 162.791 34.1549 162.81 34.424Z" fill="#E4012B"/>
<path d="M151.744 29.0218C151.748 29.0218 151.758 28.9559 151.773 28.8269C151.788 28.6877 151.809 28.4983 151.835 28.2547C151.849 28.0016 151.913 27.6957 151.989 27.3351C152.031 27.1559 152.052 26.9565 152.117 26.7549C152.179 26.552 152.245 26.3367 152.314 26.1088C152.621 25.2103 153.095 24.1325 153.892 23.0605C154.683 21.9907 155.796 20.9338 157.225 20.1331C157.928 19.7101 158.733 19.4154 159.576 19.1552C160.433 18.9507 161.34 18.7754 162.289 18.7981C162.763 18.7725 163.242 18.8426 163.729 18.8839C163.972 18.9072 164.212 18.9728 164.457 19.0157C164.701 19.0611 164.947 19.1095 165.187 19.1933C166.166 19.4467 167.118 19.9127 168.025 20.4903C169.846 21.6451 171.379 23.5242 172.22 25.8019C172.641 26.9415 172.843 28.1907 172.842 29.4525C172.867 30.7168 172.624 32.001 172.178 33.2099L172.035 33.5754L172.016 33.6237L172.035 33.6688C172.831 35.5175 173.612 37.3306 174.368 39.0874L174.502 38.9344C172.863 38.2995 171.274 37.6839 169.749 37.0931L169.69 37.0704L169.644 37.1155C168.326 38.4039 166.751 39.2746 165.157 39.7283C163.557 40.1831 161.947 40.2064 160.481 39.9437C159.013 39.6816 157.691 39.1152 156.589 38.3872C155.483 37.6592 154.596 36.7741 153.913 35.8746C153.234 34.9651 152.788 34.0327 152.45 33.1997C152.153 32.3485 151.971 31.593 151.883 30.9677C151.845 30.6554 151.812 30.3776 151.783 30.1354C151.777 29.896 151.772 29.6925 151.767 29.5239C151.762 29.3667 151.758 29.2426 151.755 29.1491C151.751 29.065 151.747 29.0218 151.744 29.0218C151.741 29.0218 151.739 29.0643 151.737 29.1488C151.735 29.2426 151.734 29.3664 151.732 29.5245C151.732 29.6938 151.731 29.8989 151.731 30.1395C151.755 30.3837 151.783 30.6637 151.815 30.9786C151.893 31.6099 152.066 32.3747 152.357 33.2384C152.689 34.0835 153.133 35.0317 153.812 35.9584C154.497 36.8752 155.39 37.7789 156.507 38.5245C157.621 39.2701 158.961 39.8528 160.451 40.1261C161.938 40.3994 163.576 40.3824 165.205 39.9248C166.829 39.4685 168.436 38.5856 169.783 37.2749L169.678 37.2973C171.202 37.8903 172.789 38.5085 174.428 39.1459L174.667 39.2391L174.561 38.993C173.806 37.2355 173.027 35.4221 172.232 33.5731L172.232 33.6663L172.379 33.2928C172.835 32.0573 173.082 30.7437 173.056 29.4515C173.057 28.1619 172.849 26.8848 172.417 25.721C171.555 23.3943 169.987 21.4823 168.13 20.3104C167.205 19.7242 166.234 19.2538 165.237 18.9984C164.993 18.9143 164.742 18.8659 164.493 18.8205C164.245 18.7776 164.001 18.712 163.753 18.689C163.258 18.649 162.771 18.5802 162.29 18.608C161.326 18.5895 160.403 18.7712 159.535 18.984C158.68 19.2525 157.865 19.5568 157.154 19.9901C155.709 20.8115 154.589 21.8915 153.797 22.9818C153 24.0739 152.532 25.1693 152.235 26.08C152.168 26.3107 152.105 26.5293 152.046 26.7344C151.984 26.9386 151.965 27.1399 151.926 27.321C151.857 27.6858 151.799 27.9943 151.792 28.2493C151.775 28.4941 151.761 28.6855 151.751 28.8253C151.743 28.9552 151.741 29.0215 151.744 29.0218Z" fill="#263238"/>
</svg>
