<svg width="500" height="374" viewBox="0 0 500 374" fill="none" xmlns="http://www.w3.org/2000/svg">
<path d="M500 328.398H0V328.648H500V328.398Z" fill="#E0E0E0"/>
<path d="M377.667 338.989H343.263V339.239H377.667V338.989Z" fill="#E0E0E0"/>
<path d="M111.04 339.114H91.6812V339.364H111.04V339.114Z" fill="#E0E0E0"/>
<path d="M251 338.528H211.761V338.778H251V338.528Z" fill="#E0E0E0"/>
<path d="M210.761 334.972H193.22V335.222H210.761V334.972Z" fill="#E0E0E0"/>
<path d="M424.555 335.097H371.57V335.347H424.555V335.097Z" fill="#E0E0E0"/>
<path d="M237.014 283.8H43.915C40.768 283.8 38.207 281.239 38.207 278.092V6.66015C38.207 3.51315 40.768 0.952148 43.915 0.952148H237.014C240.16 0.952148 242.721 3.51315 242.721 6.66015V278.092C242.721 281.239 240.16 283.8 237.014 283.8ZM43.915 1.20315C40.905 1.20315 38.457 3.65115 38.457 6.66115V278.093C38.457 281.103 40.905 283.551 43.915 283.551H237.014C240.023 283.551 242.471 281.103 242.471 278.093V6.66015C242.471 3.65115 240.023 1.20215 237.014 1.20215L43.915 1.20315Z" fill="#E0E0E0"/>
<path d="M453.31 283.8H260.212C257.066 283.8 254.505 281.239 254.505 278.092V6.66015C254.505 3.51315 257.066 0.952148 260.212 0.952148H453.31C456.458 0.952148 459.018 3.51315 459.018 6.66015V278.092C459.019 281.239 456.458 283.8 453.31 283.8ZM260.212 1.20315C257.203 1.20315 254.755 3.65115 254.755 6.66115V278.093C254.755 281.103 257.203 283.551 260.212 283.551H453.31C456.32 283.551 458.768 281.103 458.768 278.093V6.66015C458.768 3.65115 456.32 1.20215 453.31 1.20215L260.212 1.20315Z" fill="#E0E0E0"/>
<path d="M439.313 203.227C427.007 184.5 438.243 164.364 436.37 143.532C434.497 122.7 414.7 118.152 418.446 100.495C422.789 80.0222 411.223 60.3662 398.114 60.3662C385.005 60.3662 373.439 80.0222 377.782 100.495C381.527 118.152 361.73 122.7 359.857 143.532C357.984 164.364 369.221 184.499 356.914 203.227C344.608 221.954 347.837 246.76 354.774 259.07C356.685 262.461 358.934 265.464 361.387 268.12C381.068 289.434 415.161 289.434 434.842 268.12C437.294 265.464 439.544 262.462 441.455 259.07C448.39 246.76 451.62 221.954 439.313 203.227Z" fill="#E0E0E0"/>
<path d="M404.334 328.397H391.894V223.663C391.894 220.242 394.693 217.443 398.114 217.443C401.535 217.443 404.334 220.242 404.334 223.663V328.397Z" fill="#F0F0F0"/>
<path d="M319.909 328.397H302.973V223.671C302.973 219.013 306.784 215.203 311.441 215.203C316.099 215.203 319.909 219.014 319.909 223.671V328.397Z" fill="#E0E0E0"/>
<path d="M311.441 300.147C340.253 300.147 363.609 276.79 363.609 247.979C363.609 219.167 340.253 195.811 311.441 195.811C282.629 195.811 259.273 219.167 259.273 247.979C259.273 276.79 282.629 300.147 311.441 300.147Z" fill="#F0F0F0"/>
<path d="M372.745 232.337C375.482 221.319 368.769 210.167 357.75 207.429C346.731 204.692 335.579 211.405 332.842 222.424C330.104 233.443 336.818 244.595 347.837 247.333C358.856 250.07 370.007 243.356 372.745 232.337Z" fill="#F0F0F0"/>
<path d="M281.274 217.16C282.355 210.525 277.852 204.27 271.216 203.189C264.581 202.108 258.325 206.61 257.244 213.245C256.163 219.88 260.666 226.135 267.302 227.216C273.937 228.297 280.193 223.795 281.274 217.16Z" fill="#F0F0F0"/>
<path d="M282.484 217.443C287.202 217.443 291.027 213.619 291.027 208.9C291.027 204.182 287.202 200.357 282.484 200.357C277.766 200.357 273.941 204.182 273.941 208.9C273.941 213.619 277.766 217.443 282.484 217.443Z" fill="#F0F0F0"/>
<path d="M203.97 265.892C195.284 267.183 187.755 270.331 181.254 274.56C181.192 266.645 179.743 259.127 176.023 253.056C170.36 258.575 165.773 265.712 162.068 273.389C160.68 258.956 156.891 244.973 148.5 236.135C135.928 244.043 129.448 257.224 126.366 271.183C121.357 262.238 114.446 253.982 104.903 247.979C97.2113 256.081 94.7553 267.283 94.9593 278.756C86.2213 268.583 76.5163 260.64 67.0573 259.707C64.7283 275.822 69.6883 291.015 75.9913 302.995C84.2593 318.708 100.707 328.399 118.463 328.399H159.548C177.059 328.399 193.476 319.056 201.692 303.593C206.895 293.799 209.37 281.186 203.97 265.892Z" fill="#E0E0E0"/>
<path d="M192.256 58.1387C197.333 43.2677 193.303 32.6807 180.892 32.6807C173.109 32.6807 163.458 36.8477 154.06 43.6327C152.998 39.7647 150.008 37.4467 145.197 37.4467C136.731 37.4467 125.061 44.6087 115.906 54.7137C113.691 52.4607 110.485 51.0807 106.366 50.8587C98.2642 50.4027 88.4502 54.5177 79.9182 61.2117C79.1792 60.0917 77.9122 59.3887 76.1632 59.2847C71.4942 59.0247 65.1742 63.1787 62.0342 68.5567C61.8382 68.8957 61.6652 69.2207 61.4912 69.5467H71.1892H78.9052H105.708H118.898H129.154H144.951H147.818H187.004H194.72C195.119 64.8577 194.29 60.9377 192.256 58.1387Z" fill="#F0F0F0"/>
<path d="M192.668 148.432C195.148 141.168 193.179 135.996 187.117 135.996C183.315 135.996 178.601 138.032 174.011 141.346C173.493 139.457 172.032 138.325 169.682 138.325C165.546 138.325 159.846 141.823 155.374 146.76C154.292 145.66 152.726 144.985 150.714 144.877C146.756 144.654 141.963 146.665 137.795 149.934C137.434 149.387 136.815 149.043 135.961 148.993C133.68 148.866 130.593 150.895 129.059 153.522C128.963 153.687 128.879 153.846 128.794 154.006H133.531H137.3H150.393H156.836H161.846H169.563H170.963H190.104H193.873C194.066 151.714 193.661 149.799 192.668 148.432Z" fill="#F0F0F0"/>
<path d="M342.767 93.4926C342.26 93.4186 341.745 93.3806 341.223 93.3806C341.702 86.1246 338.928 81.4916 333.003 81.4916C328.728 81.4916 323.483 83.9106 318.136 88.0036C319.666 73.9196 314.767 64.7656 303.674 64.7656C294.725 64.7656 283.397 70.7196 272.207 80.4316C271.227 74.9056 267.93 71.5936 262.39 71.5936C252.658 71.5936 238.83 81.8266 227.742 96.2646C227.742 96.2646 227.738 96.2836 227.728 96.2646C225.333 93.0456 221.733 91.0546 217.002 90.7386C207.736 90.0876 196.23 95.9666 186.029 105.549C185.253 103.93 183.84 102.926 181.819 102.795C176.752 102.441 169.769 107.725 165.713 114.796H177.534H185.548H216.366H230.799H243.651H261.905H296.393H309.836H314.62H333.754H350.922C355.271 104.08 351.807 94.7026 342.767 93.4926Z" fill="#F0F0F0"/>
<path d="M250 373.561C357.082 373.561 443.889 368.492 443.889 362.238C443.889 355.985 357.082 350.915 250 350.915C142.918 350.915 56.1108 355.985 56.1108 362.238C56.1108 368.492 142.918 373.561 250 373.561Z" fill="#F5F5F5"/>
<path d="M48.856 96.5615L276.827 129.377L307.422 160.252L48.856 96.5615Z" fill="#E4012B"/>
<path opacity="0.6" d="M48.856 96.5615L276.827 129.377L307.422 160.252L48.856 96.5615Z" fill="white"/>
<path d="M48.856 96.5615L276.827 129.377L266.248 174.022L48.856 96.5615Z" fill="#E4012B"/>
<path opacity="0.2" d="M48.856 96.5615L276.827 129.377L266.248 174.022L48.856 96.5615Z" fill="black"/>
<path d="M261.566 44.8759L274.803 106.903C275.52 110.262 273.358 113.597 269.999 114.314L151.92 139.513C148.561 140.23 145.226 138.068 144.509 134.709L131.272 72.6819C130.897 70.9259 131.31 69.1719 132.268 67.7969C133.146 66.5509 134.473 65.6129 136.076 65.2709L254.155 40.0719C255.758 39.7299 257.353 40.0439 258.663 40.8229C260.098 41.6869 261.192 43.1199 261.566 44.8759Z" fill="#E4012B"/>
<path opacity="0.4" d="M261.566 44.8759L274.803 106.903C275.52 110.262 273.358 113.597 269.999 114.314L151.92 139.513C148.561 140.23 145.226 138.068 144.509 134.709L131.272 72.6819C130.897 70.9259 131.31 69.1719 132.268 67.7969C133.146 66.5509 134.473 65.6129 136.076 65.2709L254.155 40.0719C255.758 39.7299 257.353 40.0439 258.663 40.8229C260.098 41.6869 261.192 43.1199 261.566 44.8759Z" fill="black"/>
<path d="M258.663 40.8227L219.206 89.2547C211.671 98.5047 198.712 101.27 188.057 95.9017L132.267 67.7957C133.145 66.5497 134.472 65.6117 136.075 65.2697L254.154 40.0707C255.759 39.7287 257.353 40.0437 258.663 40.8227Z" fill="#E4012B"/>
<path d="M48.856 96.5615L236.889 141.247L266.248 174.022L48.856 96.5615Z" fill="#E4012B"/>
<path opacity="0.6" d="M48.856 96.5615L236.889 141.247L266.248 174.022L48.856 96.5615Z" fill="white"/>
<path d="M117.443 139.652L116.937 140.516L137.857 152.772L138.363 151.909L117.443 139.652Z" fill="#E4012B"/>
<path d="M147.606 157.318L147.1 158.182L154.626 162.591L155.132 161.727L147.606 157.318Z" fill="#E4012B"/>
<path d="M48.856 96.5615L236.889 141.247L200.34 185.303L48.856 96.5615Z" fill="#E4012B"/>
<path d="M300.359 201.262C300.115 201.262 299.866 201.216 299.624 201.12L268.99 188.992C267.963 188.586 267.46 187.424 267.867 186.396C268.273 185.37 269.43 184.864 270.463 185.273L301.097 197.401C302.124 197.807 302.627 198.969 302.22 199.997C301.909 200.782 301.156 201.262 300.359 201.262Z" fill="#E4012B"/>
<path opacity="0.3" d="M300.359 201.262C300.115 201.262 299.866 201.216 299.624 201.12L268.99 188.992C267.963 188.586 267.46 187.424 267.867 186.396C268.273 185.37 269.43 184.864 270.463 185.273L301.097 197.401C302.124 197.807 302.627 198.969 302.22 199.997C301.909 200.782 301.156 201.262 300.359 201.262Z" fill="black"/>
<path d="M298.555 183.695C298.311 183.695 298.062 183.65 297.82 183.554L281.368 177.04C280.341 176.634 279.838 175.472 280.245 174.444C280.65 173.418 281.809 172.912 282.841 173.321L299.293 179.835C300.32 180.241 300.823 181.403 300.416 182.431C300.104 183.216 299.352 183.695 298.555 183.695Z" fill="#E4012B"/>
<path opacity="0.5" d="M298.555 183.695C298.311 183.695 298.062 183.65 297.82 183.554L281.368 177.04C280.341 176.634 279.838 175.472 280.245 174.444C280.65 173.418 281.809 172.912 282.841 173.321L299.293 179.835C300.32 180.241 300.823 181.403 300.416 182.431C300.104 183.216 299.352 183.695 298.555 183.695Z" fill="white"/>
<path d="M264.161 200.959C263.917 200.959 263.668 200.913 263.426 200.817L233.557 188.991C232.53 188.585 232.027 187.422 232.434 186.395C232.84 185.368 234.001 184.865 235.03 185.272L264.899 197.098C265.926 197.504 266.429 198.666 266.022 199.694C265.711 200.48 264.958 200.959 264.161 200.959Z" fill="#E4012B"/>
<path opacity="0.3" d="M264.161 200.959C263.917 200.959 263.668 200.913 263.426 200.817L233.557 188.991C232.53 188.585 232.027 187.422 232.434 186.395C232.84 185.368 234.001 184.865 235.03 185.272L264.899 197.098C265.926 197.504 266.429 198.666 266.022 199.694C265.711 200.48 264.958 200.959 264.161 200.959Z" fill="black"/>
<path d="M372.301 110.82C374.949 115.994 377.38 121.169 379.688 126.474C381.979 131.779 384.154 137.139 386.027 142.765L386.711 144.898C386.826 145.277 387.004 145.9 387.097 146.343C387.191 146.805 387.291 147.282 387.345 147.705C387.61 149.447 387.656 151.021 387.686 152.569C387.735 155.653 387.527 158.594 387.27 161.519C386.71 167.36 385.799 173.043 384.547 178.742L379.065 178.134C378.994 172.501 378.941 166.813 378.746 161.264C378.647 158.495 378.489 155.732 378.208 153.127C378.066 151.833 377.857 150.564 377.614 149.502C377.557 149.221 377.482 149.007 377.418 148.775C377.34 148.527 377.305 148.469 377.197 148.172L376.443 146.281C374.354 141.221 372.002 136.116 369.604 131.037L362.345 115.804L372.301 110.82Z" fill="#E4897B"/>
<path d="M379.143 176.42L376.583 181.208L384.759 183.489C384.759 183.489 386.316 179.637 384.462 176.6L379.143 176.42Z" fill="#E4897B"/>
<path d="M373.448 188.111L380.966 188.705L384.76 183.49L376.583 181.208L373.448 188.111Z" fill="#E4897B"/>
<path d="M337.873 76.2638C337.755 76.8448 337.352 77.2528 336.972 77.1758C336.592 77.0988 336.38 76.5658 336.498 75.9848C336.616 75.4038 337.019 74.9958 337.399 75.0728C337.779 75.1508 337.991 75.6838 337.873 76.2638Z" fill="#263238"/>
<path d="M337.405 77.2637C337.405 77.2637 335.404 80.3457 333.622 81.6657C334.454 82.8337 336.29 82.7507 336.29 82.7507L337.405 77.2637Z" fill="#DE5753"/>
<path d="M340.654 73.4715C340.56 73.4715 340.467 73.4335 340.398 73.3595C339.357 72.2315 338.12 72.4155 338.065 72.4215C337.881 72.4545 337.697 72.3245 337.666 72.1345C337.635 71.9455 337.762 71.7665 337.95 71.7345C338.016 71.7225 339.602 71.4715 340.91 72.8855C341.04 73.0265 341.031 73.2465 340.89 73.3775C340.823 73.4405 340.739 73.4715 340.654 73.4715Z" fill="#263238"/>
<path d="M354.414 84.4316C353.36 89.8056 352.309 99.6536 356.069 103.24C356.069 103.24 354.6 108.692 344.614 108.692C333.633 108.692 339.366 103.241 339.366 103.241C345.359 101.81 345.204 97.3626 344.16 93.1876L354.414 84.4316Z" fill="#E4897B"/>
<path d="M357.577 106.634C358.37 104 359.243 100.986 357.437 100.042C355.45 99.0026 344.575 97.9436 340.825 99.8936C337.075 101.844 338.139 107.186 338.139 107.186L357.577 106.634Z" fill="#263238"/>
<path d="M380.643 356.021C379.89 356.021 379.163 355.906 378.879 355.536C378.76 355.381 378.664 355.111 378.885 354.71C379 354.5 379.185 354.363 379.431 354.305C380.51 354.057 382.533 355.443 382.619 355.501C382.676 355.54 382.704 355.608 382.691 355.677C382.678 355.744 382.628 355.798 382.561 355.814C382.184 355.903 381.401 356.021 380.643 356.021ZM379.725 354.62C379.649 354.62 379.577 354.627 379.511 354.643C379.363 354.678 379.257 354.755 379.19 354.877C379.033 355.163 379.126 355.284 379.156 355.324C379.47 355.736 380.972 355.743 382.068 355.557C381.435 355.168 380.393 354.62 379.725 354.62Z" fill="#E4012B"/>
<path d="M382.52 355.817C382.492 355.817 382.463 355.81 382.437 355.796C381.677 355.384 380.207 353.775 380.362 352.955C380.39 352.807 380.5 352.55 380.916 352.498C381.18 352.468 381.435 352.54 381.657 352.722C382.511 353.419 382.686 355.539 382.694 355.629C382.699 355.692 382.669 355.754 382.615 355.788C382.586 355.809 382.553 355.817 382.52 355.817ZM381.036 352.84C381.011 352.84 380.984 352.841 380.958 352.845C380.731 352.872 380.712 352.977 380.703 353.021C380.612 353.506 381.548 354.722 382.304 355.294C382.218 354.675 381.984 353.44 381.436 352.992C381.31 352.89 381.18 352.84 381.036 352.84Z" fill="#E4012B"/>
<path d="M336.528 356.021C335.586 356.021 334.676 355.891 334.371 355.467C334.264 355.319 334.18 355.066 334.385 354.706C334.5 354.504 334.687 354.367 334.938 354.299C336.154 353.974 338.728 355.43 338.836 355.492C338.899 355.527 338.933 355.598 338.921 355.671C338.909 355.742 338.855 355.799 338.783 355.814C338.314 355.907 337.407 356.021 336.528 356.021ZM335.364 354.595C335.242 354.595 335.129 354.608 335.028 354.635C334.867 354.679 334.756 354.758 334.687 354.878C334.563 355.095 334.608 355.201 334.653 355.263C334.984 355.722 336.839 355.746 338.217 355.556C337.536 355.206 336.223 354.595 335.364 354.595Z" fill="#E4012B"/>
<path d="M338.749 355.817C338.725 355.817 338.7 355.812 338.678 355.802C337.792 355.405 336.036 353.817 336.169 352.985C336.201 352.79 336.339 352.547 336.817 352.499C337.172 352.465 337.497 352.563 337.782 352.797C338.717 353.565 338.914 355.543 338.922 355.627C338.928 355.688 338.901 355.749 338.851 355.785C338.82 355.807 338.785 355.817 338.749 355.817ZM336.957 352.84C336.923 352.84 336.888 352.842 336.852 352.845C336.539 352.877 336.519 353 336.512 353.041C336.432 353.54 337.625 354.788 338.53 355.331C338.436 354.754 338.174 353.569 337.56 353.065C337.376 352.914 337.178 352.84 336.957 352.84Z" fill="#E4012B"/>
<path d="M346.827 355.644H339.481L338.749 338.632H346.095L346.827 355.644Z" fill="#E4897B"/>
<path d="M390.936 355.644H383.589L379.897 338.632H387.243L390.936 355.644Z" fill="#E4897B"/>
<path d="M383.067 354.793H391.32C391.62 354.793 391.88 355.002 391.946 355.295L393.397 361.825C393.548 362.502 393.015 363.143 392.321 363.131C389.44 363.082 388.04 362.912 384.41 362.912C382.177 362.912 377.577 363.144 374.493 363.144C371.477 363.144 371.007 360.095 372.269 359.819C377.929 358.581 380.062 356.873 381.874 355.244C382.201 354.951 382.628 354.793 383.067 354.793Z" fill="#263238"/>
<path d="M339.529 354.793H347.552C347.852 354.793 348.112 355.002 348.178 355.295L349.629 361.825C349.779 362.502 349.265 363.143 348.572 363.132C345.678 363.083 341.496 362.913 337.859 362.913C333.606 362.913 329.933 363.145 324.945 363.145C321.929 363.145 321.092 360.096 322.355 359.82C328.102 358.563 332.794 358.428 337.761 355.366C338.299 355.033 338.895 354.793 339.529 354.793Z" fill="#263238"/>
<path d="M335.982 116.144C329.753 115.657 323.765 114.851 317.675 113.71C314.644 113.128 311.607 112.477 308.572 111.66C305.532 110.845 302.487 109.921 299.409 108.636C298.64 108.32 297.863 107.965 297.087 107.596C296.114 107.115 295.305 106.615 294.593 106.141C293.148 105.187 291.912 104.203 290.681 103.222C288.235 101.263 285.958 99.2267 283.712 97.1687C279.24 93.0327 274.997 88.7517 270.911 84.2477L274.59 80.1377L289.099 90.5647C291.494 92.2917 293.911 93.9777 296.289 95.5687C297.474 96.3557 298.685 97.1027 299.787 97.7247C300.346 98.0417 300.843 98.2787 301.227 98.4307C301.822 98.6637 302.424 98.8937 303.056 99.1047C308.135 100.799 313.878 101.887 319.582 102.806C325.293 103.71 331.193 104.454 336.892 105.045L335.982 116.144Z" fill="#E4897B"/>
<path d="M369.223 104.9C376.108 106.479 383.07 126.61 383.07 126.61L368.897 136.776C368.897 136.776 364.938 127.4 361.043 119.2C356.961 110.608 362.183 103.286 369.223 104.9Z" fill="#E4012B"/>
<path opacity="0.4" d="M369.223 104.9C376.108 106.479 383.07 126.61 383.07 126.61L368.897 136.776C368.897 136.776 364.938 127.4 361.043 119.2C356.961 110.608 362.183 103.286 369.223 104.9Z" fill="black"/>
<path d="M365.25 115.899L362.44 122.189C365.35 128.469 368.01 134.689 368.72 136.349C368.62 128.919 367.21 119.699 365.25 115.899Z" fill="#E4012B"/>
<path opacity="0.6" d="M365.25 115.899L362.44 122.189C365.35 128.469 368.01 134.689 368.72 136.349C368.62 128.919 367.21 119.699 365.25 115.899Z" fill="black"/>
<path d="M328.066 105.279C328.066 105.279 320.247 114.111 327.631 168.776C339.47 168.776 361.163 168.776 366.924 168.776C367.195 162.744 363.405 133.32 369.222 104.9C369.222 104.9 362.487 103.548 356.068 103.239C351.047 102.997 343.779 102.837 339.365 103.24C333.547 103.771 328.066 105.279 328.066 105.279Z" fill="#E4012B"/>
<path opacity="0.4" d="M328.066 105.279C328.066 105.279 320.247 114.111 327.631 168.776C339.47 168.776 361.163 168.776 366.924 168.776C367.195 162.744 363.405 133.32 369.222 104.9C369.222 104.9 362.487 103.548 356.068 103.239C351.047 102.997 343.779 102.837 339.365 103.24C333.547 103.771 328.066 105.279 328.066 105.279Z" fill="black"/>
<path d="M325.16 115.899C324.9 117.969 324.7 120.419 324.57 123.309C327.82 122.299 331.86 120.679 335.51 118.169L325.16 115.899Z" fill="#E4012B"/>
<path opacity="0.6" d="M325.16 115.899C324.9 117.969 324.7 120.419 324.57 123.309C327.82 122.299 331.86 120.679 335.51 118.169L325.16 115.899Z" fill="black"/>
<path d="M341.968 116.972C336.711 121.63 316.629 121.164 316.629 121.164L315.967 101.75C315.967 101.75 327.352 103.419 336.436 103.234C347.658 103.007 347.737 111.86 341.968 116.972Z" fill="#E4012B"/>
<path opacity="0.4" d="M341.968 116.972C336.711 121.63 316.629 121.164 316.629 121.164L315.967 101.75C315.967 101.75 327.352 103.419 336.436 103.234C347.658 103.007 347.737 111.86 341.968 116.972Z" fill="black"/>
<path d="M274.769 80.2376L269.726 74.3506L264.343 80.3126C264.343 80.3126 267.657 85.8876 272.935 85.0076L274.769 80.2376Z" fill="#E4897B"/>
<path d="M262.607 67.4844L260.667 75.1664L264.343 80.3134L269.726 74.3504L262.607 67.4844Z" fill="#E4897B"/>
<path d="M338.751 338.636L339.127 347.405H346.476L346.1 338.636H338.751Z" fill="#CE6F64"/>
<path d="M387.246 338.636H379.896L381.803 347.405H389.153L387.246 338.636Z" fill="#CE6F64"/>
<path d="M343.173 68.9616C336.583 65.9166 334.5 52.6246 353.458 55.9166C353.458 55.9166 350.601 59.0836 356.405 61.0836C362.208 63.0826 357.35 75.5136 343.173 68.9616Z" fill="#263238"/>
<path d="M357.491 78.9699C355.604 86.0119 354.857 90.2299 350.511 93.1589C343.974 97.5639 335.835 92.5089 335.58 85.0439C335.351 78.3249 338.476 67.9369 346.033 66.5179C353.479 65.1199 359.379 71.9279 357.491 78.9699Z" fill="#E4897B"/>
<path d="M353.2 59.4946C357.686 62.0036 363.768 63.4996 363.157 67.0566C362.41 71.4046 366.834 68.6846 365.804 75.1626C365.131 79.3926 357.329 92.2106 351.837 91.5846C343.581 90.6436 344.627 78.0326 344.6 71.4056C344.583 67.4996 344.4 54.5736 353.2 59.4946Z" fill="#263238"/>
<path d="M343.61 65.1104C341.61 65.5824 338.959 77.1104 346.706 78.1664C355.623 79.3814 343.61 65.1104 343.61 65.1104Z" fill="#263238"/>
<path d="M343.813 69.2023C341.362 69.4183 335.834 66.4682 336.494 62.0312C336.494 62.0312 340.016 67.2233 343.813 69.2023Z" fill="#263238"/>
<path d="M347.446 79.0872C346.679 80.8362 345.227 82.2122 343.822 82.9442C341.708 84.0442 340.521 82.4352 340.999 80.3212C341.429 78.4182 343.048 75.5522 345.221 75.3172C347.364 75.0852 348.323 77.0872 347.446 79.0872Z" fill="#E4897B"/>
<path d="M358.446 70.949C359.93 70.194 363.31 68.482 364.231 63.625C364.231 63.625 367.532 72.84 358.446 70.949Z" fill="#263238"/>
<path d="M366.793 70.8519C366.052 70.4179 364.37 69.4289 362.007 70.3799C362.007 70.3799 365.086 66.3849 366.793 70.8519Z" fill="#263238"/>
<path d="M341.57 168.776C341.57 168.776 349.907 224.918 354.484 245.951C359.496 268.984 378.379 345.706 378.379 345.706H391.834C391.834 345.706 379.383 270.843 376.523 248.039C373.419 223.289 366.924 168.776 366.924 168.776H341.57Z" fill="#E4012B"/>
<path opacity="0.5" d="M341.57 168.776C341.57 168.776 349.907 224.918 354.484 245.951C359.496 268.984 378.379 345.706 378.379 345.706H391.834C391.834 345.706 379.383 270.843 376.523 248.039C373.419 223.289 366.924 168.776 366.924 168.776H341.57Z" fill="white"/>
<path d="M376.23 340.75C376.173 340.75 377.619 345.917 377.619 345.917H392.757L392.479 341.306L376.23 340.75Z" fill="#E4012B"/>
<path opacity="0.1" d="M376.23 340.75C376.173 340.75 377.619 345.917 377.619 345.917H392.757L392.479 341.306L376.23 340.75Z" fill="black"/>
<path d="M346.839 188.779C356.479 190.669 355.459 226.619 354.299 245.109C351.519 232.039 347.449 206.889 344.669 189.039C345.309 188.719 346.029 188.619 346.839 188.779Z" fill="#E4012B"/>
<path opacity="0.4" d="M346.839 188.779C356.479 190.669 355.459 226.619 354.299 245.109C351.519 232.039 347.449 206.889 344.669 189.039C345.309 188.719 346.029 188.619 346.839 188.779Z" fill="white"/>
<path d="M327.632 168.776C327.632 168.776 326.62 223.703 327.419 246.106C328.25 269.408 336.389 345.707 336.389 345.707H348.834C348.834 345.707 349.291 270.77 349.844 247.885C350.448 222.936 353.46 168.777 353.46 168.777H327.632V168.776Z" fill="#E4012B"/>
<path opacity="0.5" d="M327.632 168.776C327.632 168.776 326.62 223.703 327.419 246.106C328.25 269.408 336.389 345.707 336.389 345.707H348.834C348.834 345.707 349.291 270.77 349.844 247.885C350.448 222.936 353.46 168.777 353.46 168.777H327.632V168.776Z" fill="white"/>
<path d="M338.981 336.768C338.918 336.768 338.864 336.72 338.857 336.656C336.664 315.539 331.491 264.443 330.836 246.112C330.169 227.401 330.775 185.422 330.977 173.001C330.978 172.933 331.034 172.878 331.102 172.878H331.104C331.173 172.879 331.228 172.936 331.227 173.005C331.025 185.424 330.419 227.398 331.086 246.102C331.74 264.426 336.911 315.515 339.105 336.63C339.113 336.698 339.063 336.76 338.994 336.767C338.99 336.768 338.985 336.768 338.981 336.768Z" fill="#E4012B"/>
<path opacity="0.4" d="M338.981 336.768C338.918 336.768 338.864 336.72 338.857 336.656C336.664 315.539 331.491 264.443 330.836 246.112C330.169 227.401 330.775 185.422 330.977 173.001C330.978 172.933 331.034 172.878 331.102 172.878H331.104C331.173 172.879 331.228 172.936 331.227 173.005C331.025 185.424 330.419 227.398 331.086 246.102C331.74 264.426 336.911 315.515 339.105 336.63C339.113 336.698 339.063 336.76 338.994 336.767C338.99 336.768 338.985 336.768 338.981 336.768Z" fill="white"/>
<path d="M333.994 340.75C333.937 340.75 334.696 345.917 334.696 345.917H349.835L350.244 341.306L333.994 340.75Z" fill="#E4012B"/>
<path opacity="0.1" d="M333.994 340.75C333.937 340.75 334.696 345.917 334.696 345.917H349.835L350.244 341.306L333.994 340.75Z" fill="black"/>
</svg>
